
<svg width="205px" height="203px" viewBox="0 0 205 203" version="1.1" xmlns="http://www.w3.org/2000/svg" xmlns:xlink="http://www.w3.org/1999/xlink">
    <!-- Generator: Sketch 49 (51002) - http://www.bohemiancoding.com/sketch -->
    <desc>Created with Sketch.</desc>
    <defs>
        <linearGradient x1="50%" y1="0%" x2="50%" y2="100%" id="linearGradient-1">
            <stop stop-color="#1083FF" offset="0%"></stop>
            <stop stop-color="#0462D3" offset="100%"></stop>
        </linearGradient>
    </defs>
    <g id="Page-1" stroke="none" stroke-width="1" fill="none" fill-rule="evenodd">
        <g id="Desktop" transform="translate(-586.000000, -454.000000)" fill="url(#linearGradient-1)">
            <path d="M677.5,632 C626.965945,632 586,592.153343 586,543 C586,493.846657 626.965945,454 677.5,454 C728.034055,454 769,493.846657 769,543 C769,592.153343 728.034055,632 677.5,632 Z M677,599 C705.718807,599 729,574.151804 729,543.5 C729,512.848196 705.718807,488 677,488 C648.281193,488 625,512.848196 625,543.5 C625,574.151804 648.281193,599 677,599 Z M758.271592,607.17869 L787.91961,607.17869 L787.91961,614.961133 L778.328545,625.442621 C786.3289,627.261011 790.329078,632.251688 790.329078,640.414654 C790.329078,652.659102 772.856633,663.401628 755.557326,650.200927 C756.507364,649.033738 758.057231,646.394055 760.206929,642.281877 C772.288006,648.798956 778.857597,648.176548 779.915703,640.414654 C779.915703,631.716831 766.099317,633.968986 764.273191,635.241833 C764.273191,634.451361 764.273191,631.739125 764.273191,627.105124 L772.943202,616.417392 L758.271592,616.417392 L758.271592,607.17869 Z" id="Combined-Shape"></path>
        </g>
    </g>
</svg>